<svg xmlns="http://www.w3.org/2000/svg" viewBox="0 0 58 64">
  <path fill="#313048" fill-rule="evenodd" d="M14.78 46.13l7.14-7.08h14.5l5.55 19.38-27.2-12.3zm-10-24.58l13.27 1.67V37.2c0 .12.02.26.05.38l-6.32 6.27-7-22.3zm13.27-2.08l-11.9-1.5 11.9-11.8v13.3zm26.13-9.15l-11 11.07-11.38-1.45V4.3l22.38 6.02zm-22.38 25V23.7l10.6 1.34 2.95 10.3H21.8zm31.25 0h-13.8l-3.3-11.44 10.97-11.02 6.13 22.47zm-7.82 20.9L40.3 39.05h12.3l-7.37 17.17zM57.3 36.7L49.72 8.9c-.18-.63-.68-1.13-1.32-1.3L20.4.06c-.55-.15-1.15-.03-1.6.32l-.1.08-.1-.1L.8 18.02h.02l-.12.12c-.4.5-.54 1.15-.35 1.75L8.8 46.82c.15.5.52.92 1 1.14l34.3 15.5c.26.12.52.18.78.18.44 0 .88-.16 1.23-.45.23-.2.4-.43.5-.68l10.35-24.17.03-.03c.36-.46.48-1.06.32-1.62z"/>
</svg>